# xmcd CD database file
#
# Track frame offsets:
#	150
#	2837
#	18332
#	39717
#	60052
#	80510
#	95955
#	130432
#
# Disc length: 4440 seconds
#
# Revision: 0
# Processed by: cddbd v1.5PL3 Copyright (c) Steve Scherf et al.
# Submitted via: CDex 1.51
#
DISCID=60115608
DTITLE=3B LAB.☆ - LET`S GO A HEAD
DYEAR=2002
DGENRE=Rock
TTITLE0=BABY`S FIRST CRY
TTITLE1=DAY
TTITLE2=遠距離失恋愛
TTITLE3=愛の歌
TTITLE4=喜怒哀楽
TTITLE5=THE 3rd GRADE
TTITLE6=星と僕と君のうた
TTITLE7=エクストラトラック
EXTD=YEAR: 2002
EXTT0=
EXTT1=
EXTT2=
EXTT3=
EXTT4=
EXTT5=
EXTT6=
EXTT7=
PLAYORDER=
